<svg xmlns="http://www.w3.org/2000/svg" xmlns:xlink="http://www.w3.org/1999/xlink" width="500" zoomAndPan="magnify" viewBox="0 0 375 374.999991" height="500" preserveAspectRatio="xMidYMid meet" version="1.0"><defs><g/><clipPath id="f6ab457aad"><path d="M 23 23 L 352 23 L 352 352 L 23 352 Z M 23 23 " clip-rule="nonzero"/></clipPath><clipPath id="853be28861"><path d="M 187.5 23.097656 L 351.902344 187.5 L 187.5 351.902344 L 23.097656 187.5 Z M 187.5 23.097656 " clip-rule="nonzero"/></clipPath><clipPath id="7f93335ef9"><path d="M 187.5 23.097656 L 351.902344 187.5 L 187.5 351.902344 L 23.097656 187.5 Z M 187.5 23.097656 " clip-rule="nonzero"/></clipPath></defs><g clip-path="url(#f6ab457aad)"><g clip-path="url(#853be28861)"><g clip-path="url(#7f93335ef9)"><path fill="#45474b" d="M 187.5 23.097656 L 351.902344 187.5 L 187.5 351.902344 L 23.097656 187.5 Z M 187.5 23.097656 " fill-opacity="1" fill-rule="nonzero"/></g></g></g><g fill="#f5f7f8" fill-opacity="1"><g transform="translate(187.549159, 307.899751)"><g><path d="M -0.179688 -104.714844 L -20.585938 -125.121094 L 26.492188 -172.199219 L 26.492188 -224.46875 L -25.957031 -224.648438 L -100.0625 -150.539062 L -100.0625 -99.703125 L -25.597656 -25.238281 L 25.238281 -25.238281 L 99.347656 -99.347656 L 99.347656 -151.613281 L 46.898438 -151.792969 Z M -95.585938 -149.644531 L -24.34375 -220.890625 L 22.195312 -220.890625 L -49.046875 -149.644531 Z M -24.703125 -29.714844 L -96.304688 -101.316406 L -96.304688 -147.855469 L -24.703125 -76.253906 Z M -1.074219 -100.597656 L -24.34375 -77.328125 L -95.585938 -148.570312 L -49.046875 -148.570312 Z M -24.523438 -125.839844 L -47.792969 -149.109375 L 23.089844 -219.992188 L 23.089844 -173.453125 Z M -23.628906 -76.253906 L 47.4375 -147.320312 L 47.4375 -100.777344 L -23.628906 -29.714844 Z M 95.585938 -101.316406 L 48.867188 -101.136719 L 48.6875 -148.214844 L 95.945312 -148.214844 Z M -22.914062 -29 L 48.152344 -100.0625 L 94.691406 -100.0625 L 23.628906 -29 Z M -22.914062 -29 "/></g></g></g></svg>